<?xml version="1.0" encoding="UTF-8" standalone="no"?>
<!-- Created with Inkscape (http://www.inkscape.org/) -->

<svg
   version="1.1"
   id="svg2"
   width="32"
   height="32"
   viewBox="0 0 32 32"
   sodipodi:docname="favicon.svg"
   inkscape:version="1.2.1 (9c6d41e410, 2022-07-14)"
   xml:space="preserve"
   xmlns:inkscape="http://www.inkscape.org/namespaces/inkscape"
   xmlns:sodipodi="http://sodipodi.sourceforge.net/DTD/sodipodi-0.dtd"
   xmlns="http://www.w3.org/2000/svg"
   xmlns:svg="http://www.w3.org/2000/svg"><defs
     id="defs6" /><sodipodi:namedview
     id="namedview4"
     pagecolor="#ffffff"
     bordercolor="#111111"
     borderopacity="1"
     inkscape:showpageshadow="0"
     inkscape:pageopacity="0"
     inkscape:pagecheckerboard="1"
     inkscape:deskcolor="#d1d1d1"
     showgrid="false"
     showguides="true"
     inkscape:zoom="9.0962215"
     inkscape:cx="-32.046273"
     inkscape:cy="18.853982"
     inkscape:window-width="1920"
     inkscape:window-height="991"
     inkscape:window-x="-9"
     inkscape:window-y="-9"
     inkscape:window-maximized="1"
     inkscape:current-layer="g8" /><g
     inkscape:groupmode="layer"
     inkscape:label="Image"
     id="g8"><circle
       style="fill:#c5c4c4;stroke:#000000;stroke-width:0.547985;stroke-linejoin:round;paint-order:stroke fill markers;fill-opacity:1"
       id="path1258"
       cx="15.939449"
       cy="16.041311"
       r="15.693365" /><path
       style="fill:#000000;stroke-width:0.223745"
       d="M 18.923255,18.599714 V 12.33481 l 3.188392,9.25e-4 c 1.753614,6.74e-4 3.56284,0.105243 4.020495,0.232343 2.443106,0.678519 3.363709,3.299975 1.808106,5.148695 l -0.586298,0.696781 0.574133,0.484477 c 0.816921,0.68936 1.063771,1.297716 1.063771,2.621679 0,1.043075 -0.08493,1.244694 -0.844093,2.003859 -1.134139,1.134139 -2.035805,1.338006 -5.924243,1.339477 l -3.300263,9.25e-4 z m 6.514077,3.790086 c 0.636812,-0.34081 0.914804,-1.208521 0.605015,-1.888438 -0.300897,-0.660404 -1.337165,-1.003609 -3.035712,-1.005413 l -1.174672,-9.25e-4 v 1.566223 1.566225 h 1.580934 c 0.869518,0 1.78051,-0.106814 2.024435,-0.237349 z m -0.167471,-5.372555 c 0.708474,-0.557287 0.766491,-1.373034 0.142048,-1.997477 -0.362255,-0.362253 -0.745824,-0.447488 -2.013722,-0.447488 h -1.566224 v 1.454345 1.454354 h 1.424175 c 1.102009,0 1.557546,-0.104906 2.013723,-0.463734 z M 6.0144285,19.586865 C 4.5273888,19.215118 2.9347703,17.45204 2.9347703,16.04719 c 0,-0.447266 0.112027,-0.488722 1.320595,-0.488722 1.26948,0 1.329754,0.02627 1.557259,0.678908 0.5968181,1.712027 4.0582969,1.594339 4.0582969,-0.137988 0,-0.726922 -0.8804887,-1.321658 -2.5938309,-1.752032 C 3.8718234,13.491976 2.611086,12.071872 3.1439017,9.6917134 3.8056286,6.7357026 8.6570248,5.7800352 11.224795,8.0998723 c 0.736172,0.6650852 1.324026,1.8109274 1.329836,2.5921017 6.66e-4,0.09233 -0.606032,0.167813 -1.348257,0.167813 -1.083172,0 -1.3769087,-0.07726 -1.4883616,-0.391553 C 9.2913952,9.265254 8.0795797,8.6027685 6.7162701,9.1723961 5.965497,9.4860881 5.8213578,9.803389 5.884842,10.462904 c 0.083634,0.869093 0.7270984,1.255225 3.3098833,1.98631 2.7730517,0.784948 4.0323547,2.523436 3.3873357,4.676312 -0.308428,1.029438 -1.125885,2.151847 -2.255529,2.545315 -1.2776297,0.445009 -3.0714511,0.226172 -3.9185329,0.01443 z M 15.551701,8.3639673 v -1.454354 c 2.204739,0.013415 16.083008,-0.1073459 13.273413,0 v 1.454354 1.454345 c 2.80806,-0.1201783 -11.06761,-0.00735 -13.273413,0 z M 2.9229929,23.822043 V 22.367697 H 16.795277 16.196396 v 1.454346 1.454353 H 16.795277 2.9229929 Z"
       id="path847"
       sodipodi:nodetypes="cccsscsssccccsccccsccssscccsssssssssssssssssssscccccccccccccccc" /></g></svg>
