<?xml version="1.0" encoding="UTF-8" standalone="no"?>
<!-- Created with Inkscape (http://www.inkscape.org/) -->

<svg
   width="500"
   height="500"
   viewBox="0 0 132.29166 132.29166"
   version="1.1"
   id="svg5"
   inkscape:version="1.2.1 (9c6d41e410, 2022-07-14)"
   sodipodi:docname="profildark.svg"
   xmlns:inkscape="http://www.inkscape.org/namespaces/inkscape"
   xmlns:sodipodi="http://sodipodi.sourceforge.net/DTD/sodipodi-0.dtd"
   xmlns="http://www.w3.org/2000/svg"
   xmlns:svg="http://www.w3.org/2000/svg">
  <sodipodi:namedview
     id="namedview7"
     pagecolor="#ffffff"
     bordercolor="#111111"
     borderopacity="1"
     inkscape:showpageshadow="0"
     inkscape:pageopacity="0"
     inkscape:pagecheckerboard="1"
     inkscape:deskcolor="#d1d1d1"
     inkscape:document-units="mm"
     showgrid="false"
     showguides="true"
     inkscape:zoom="1.3927712"
     inkscape:cx="236.9377"
     inkscape:cy="231.91174"
     inkscape:window-width="1920"
     inkscape:window-height="991"
     inkscape:window-x="-9"
     inkscape:window-y="-9"
     inkscape:window-maximized="1"
     inkscape:current-layer="layer1">
    <inkscape:grid
       type="xygrid"
       id="grid653" />
  </sodipodi:namedview>
  <defs
     id="defs2">
    <clipPath
       clipPathUnits="userSpaceOnUse"
       id="clipPath1080">
      <path
         id="path1082"
         style="fill:#ff0000;fill-opacity:1;fill-rule:nonzero;stroke:none;stroke-width:0.264583"
         d="m 41.728202,85.219088 v 35.947672 c 0.09772,0.0128 0.195199,0.0273 0.293005,0.0393 1.29132,0.0986 2.564048,0.31301 3.816821,0.63614 0.956342,0.25606 1.848117,0.67877 2.737818,1.10277 0.674206,0.30202 1.426583,0.76835 1.77767,0.96997 -0.01924,-0.0124 -0.0776,-0.0478 -0.05736,-0.0372 0.186142,0.0977 0.363625,0.19899 0.546222,0.30179 0.0058,0.003 0.01172,0.007 0.01757,0.01 0.02841,0.0105 0.06546,0.0237 0.0894,0.0248 0.01471,7.9e-4 -0.05303,-0.0252 -0.03876,-0.0212 0.07595,0.0195 0.714671,0.20287 0.811321,0.23047 0.141989,0.0405 0.284652,0.0786 0.426847,0.11834 -2.05821,-3.94568 0.663826,-8.51009 6.343282,-8.48889 1.383276,0.005 2.94232,0.28241 4.649843,0.90693 1.262227,0.46165 0.602226,0.19484 1.971974,0.817 0.228341,0.14454 0.464325,0.27841 0.696082,0.41806 -0.08769,-1.02163 -0.164444,-2.04405 -0.223242,-3.06803 -0.07708,-1.21229 -0.07129,-2.42824 -0.152445,-3.64008 -0.108784,-1.02342 -0.218713,-2.04494 -0.390676,-3.05977 -0.07957,-0.71106 -0.298987,-1.38214 -0.526582,-2.05465 -0.176583,-0.49053 -0.389321,-0.96667 -0.585494,-1.44953 -0.245231,-0.59903 -0.415644,-1.22449 -0.620117,-1.83709 -0.234995,-0.70756 -0.392509,-1.43751 -0.523483,-2.17041 -0.07591,-0.41665 -0.114155,-0.83805 -0.157097,-1.25884 -0.0042,-0.0406 0.01765,0.162015 0.0098,0.121957 -0.01392,-0.07161 -0.01902,-0.144703 -0.02842,-0.217043 -0.06939,-0.486423 -0.152162,-0.970923 -0.243912,-1.453658 -0.08303,-0.38023 -0.185568,-0.754575 -0.293004,-1.12913 -0.152138,-0.438224 -0.131273,-0.329388 -0.363287,-0.952397 -0.132715,-0.335857 -0.25338,-0.676045 -0.371035,-1.017508 -0.195154,-0.566378 -0.331386,-1.060945 -0.419098,-1.496034 -0.301963,0.502351 -0.595368,1.214766 -0.877982,2.176614 -0.05821,0.198109 0.02896,0.628507 -0.174668,0.594278 -0.202263,-0.034 0.08147,-0.401918 0.118856,-0.603581 0.03103,-0.167368 0.05942,-0.335246 0.0863,-0.50333 0.106014,-0.662842 0.194882,-1.328563 0.28112,-1.994191 0.106982,-0.846064 0.171784,-1.69621 0.231513,-2.546615 0.155104,-2.20836 0.667235,-4.009583 1.403014,-5.416724 z m 30.947466,0 c 0.74041,1.61377 1.12554,3.732448 0.938961,6.341215 -0.07619,1.06525 -0.161073,2.130002 -0.293523,3.189986 0.997564,0.08384 1.514488,-0.36581 1.184942,-1.78077 -0.157372,-0.478208 -0.352587,-0.961689 -0.510564,-1.379762 -0.08263,-0.250151 -0.195046,-0.48959 -0.27957,-0.738971 -0.0052,-0.01537 0.01384,0.02922 0.02066,0.04392 0.396179,0.851474 0.643025,1.531929 0.769464,2.074809 0.04956,0.150617 0.09412,0.30022 0.133842,0.447519 v -8.19795 z M 50.911104,124.21774 v 5.3e-4 c 0.03355,0.019 0.06686,0.0384 0.100769,0.0568 0.0057,0.003 0.02265,0.0104 0.0181,0.007 -0.0097,-0.009 -0.02225,-0.0147 -0.03359,-0.0217 -0.08077,-0.0392 -0.06175,-0.031 -0.08527,-0.0424 z m -9.182902,10.09241 v 1.7601 c 0.336238,-0.49523 0.76395,-0.92346 1.187008,-1.35548 -0.09701,-0.0462 -0.562168,-0.26738 -0.57981,-0.27853 -0.02103,-0.0133 -0.0064,-0.008 0.0181,0.002 -0.0083,-0.005 -0.0104,-0.009 0.0073,-0.007 0.257614,0.0249 -0.239543,-0.0637 -0.255283,-0.0667 -0.125365,-0.0211 -0.251175,-0.0384 -0.377238,-0.0543 z m 11.821501,4.09897 c -0.01267,-0.036 0.01966,0.0737 0.02946,0.11059 0.01397,0.0412 0.02925,0.0819 0.04341,0.12299 -0.0218,-0.0792 -0.04591,-0.15709 -0.07286,-0.23358 z m 21.090187,2.29289 c -0.03974,0.009 -0.07905,0.0202 -0.118856,0.0289 -0.345575,0.64286 -0.664851,1.30041 -0.959634,1.96784 -0.364397,0.79876 -0.666427,1.62445 -0.965313,2.44947 -0.490128,1.25099 -0.988055,2.50293 -1.741496,3.6251 -0.241906,0.36029 -0.52438,0.69129 -0.786516,1.03714 -0.715291,0.8182 -1.521674,1.53075 -2.396236,2.14664 h 6.968051 z m -32.911688,3.44681 v 7.80831 h 4.528405 c -1.176036,-1.09701 -2.104073,-2.40839 -2.834968,-3.84421 -0.333071,-0.6543 -0.554977,-1.20736 -0.836642,-1.87378 -0.30584,-0.68905 -0.589627,-1.38645 -0.856795,-2.09032 z" />
    </clipPath>
    <clipPath
       clipPathUnits="userSpaceOnUse"
       id="clipPath1080-2">
      <path
         id="path1082-1"
         style="fill:#ff0000;fill-opacity:1;fill-rule:nonzero;stroke:none;stroke-width:0.264583"
         d="m 41.728202,85.219088 v 35.947672 c 0.09772,0.0128 0.195199,0.0273 0.293005,0.0393 1.29132,0.0986 2.564048,0.31301 3.816821,0.63614 0.956342,0.25606 1.848117,0.67877 2.737818,1.10277 0.674206,0.30202 1.426583,0.76835 1.77767,0.96997 -0.01924,-0.0124 -0.0776,-0.0478 -0.05736,-0.0372 0.186142,0.0977 0.363625,0.19899 0.546222,0.30179 0.0058,0.003 0.01172,0.007 0.01757,0.01 0.02841,0.0105 0.06546,0.0237 0.0894,0.0248 0.01471,7.9e-4 -0.05303,-0.0252 -0.03876,-0.0212 0.07595,0.0195 0.714671,0.20287 0.811321,0.23047 0.141989,0.0405 0.284652,0.0786 0.426847,0.11834 -2.05821,-3.94568 0.663826,-8.51009 6.343282,-8.48889 1.383276,0.005 2.94232,0.28241 4.649843,0.90693 1.262227,0.46165 0.602226,0.19484 1.971974,0.817 0.228341,0.14454 0.464325,0.27841 0.696082,0.41806 -0.08769,-1.02163 -0.164444,-2.04405 -0.223242,-3.06803 -0.07708,-1.21229 -0.07129,-2.42824 -0.152445,-3.64008 -0.108784,-1.02342 -0.218713,-2.04494 -0.390676,-3.05977 -0.07957,-0.71106 -0.298987,-1.38214 -0.526582,-2.05465 -0.176583,-0.49053 -0.389321,-0.96667 -0.585494,-1.44953 -0.245231,-0.59903 -0.415644,-1.22449 -0.620117,-1.83709 -0.234995,-0.70756 -0.392509,-1.43751 -0.523483,-2.17041 -0.07591,-0.41665 -0.114155,-0.83805 -0.157097,-1.25884 -0.0042,-0.0406 0.01765,0.162015 0.0098,0.121957 -0.01392,-0.07161 -0.01902,-0.144703 -0.02842,-0.217043 -0.06939,-0.486423 -0.152162,-0.970923 -0.243912,-1.453658 -0.08303,-0.38023 -0.185568,-0.754575 -0.293004,-1.12913 -0.152138,-0.438224 -0.131273,-0.329388 -0.363287,-0.952397 -0.132715,-0.335857 -0.25338,-0.676045 -0.371035,-1.017508 -0.195154,-0.566378 -0.331386,-1.060945 -0.419098,-1.496034 -0.301963,0.502351 -0.595368,1.214766 -0.877982,2.176614 -0.05821,0.198109 0.02896,0.628507 -0.174668,0.594278 -0.202263,-0.034 0.08147,-0.401918 0.118856,-0.603581 0.03103,-0.167368 0.05942,-0.335246 0.0863,-0.50333 0.106014,-0.662842 0.194882,-1.328563 0.28112,-1.994191 0.106982,-0.846064 0.171784,-1.69621 0.231513,-2.546615 0.155104,-2.20836 0.667235,-4.009583 1.403014,-5.416724 z m 30.947466,0 c 0.74041,1.61377 1.12554,3.732448 0.938961,6.341215 -0.07619,1.06525 -0.161073,2.130002 -0.293523,3.189986 0.997564,0.08384 1.514488,-0.36581 1.184942,-1.78077 -0.157372,-0.478208 -0.352587,-0.961689 -0.510564,-1.379762 -0.08263,-0.250151 -0.195046,-0.48959 -0.27957,-0.738971 -0.0052,-0.01537 0.01384,0.02922 0.02066,0.04392 0.396179,0.851474 0.643025,1.531929 0.769464,2.074809 0.04956,0.150617 0.09412,0.30022 0.133842,0.447519 v -8.19795 z M 50.911104,124.21774 v 5.3e-4 c 0.03355,0.019 0.06686,0.0384 0.100769,0.0568 0.0057,0.003 0.02265,0.0104 0.0181,0.007 -0.0097,-0.009 -0.02225,-0.0147 -0.03359,-0.0217 -0.08077,-0.0392 -0.06175,-0.031 -0.08527,-0.0424 z m -9.182902,10.09241 v 1.7601 c 0.336238,-0.49523 0.76395,-0.92346 1.187008,-1.35548 -0.09701,-0.0462 -0.562168,-0.26738 -0.57981,-0.27853 -0.02103,-0.0133 -0.0064,-0.008 0.0181,0.002 -0.0083,-0.005 -0.0104,-0.009 0.0073,-0.007 0.257614,0.0249 -0.239543,-0.0637 -0.255283,-0.0667 -0.125365,-0.0211 -0.251175,-0.0384 -0.377238,-0.0543 z m 11.821501,4.09897 c -0.01267,-0.036 0.01966,0.0737 0.02946,0.11059 0.01397,0.0412 0.02925,0.0819 0.04341,0.12299 -0.0218,-0.0792 -0.04591,-0.15709 -0.07286,-0.23358 z m 21.090187,2.29289 c -0.03974,0.009 -0.07905,0.0202 -0.118856,0.0289 -0.345575,0.64286 -0.664851,1.30041 -0.959634,1.96784 -0.364397,0.79876 -0.666427,1.62445 -0.965313,2.44947 -0.490128,1.25099 -0.988055,2.50293 -1.741496,3.6251 -0.241906,0.36029 -0.52438,0.69129 -0.786516,1.03714 -0.715291,0.8182 -1.521674,1.53075 -2.396236,2.14664 h 6.968051 z m -32.911688,3.44681 v 7.80831 h 4.528405 c -1.176036,-1.09701 -2.104073,-2.40839 -2.834968,-3.84421 -0.333071,-0.6543 -0.554977,-1.20736 -0.836642,-1.87378 -0.30584,-0.68905 -0.589627,-1.38645 -0.856795,-2.09032 z" />
    </clipPath>
  </defs>
  <g
     inkscape:label="Vrstva 1"
     inkscape:groupmode="layer"
     id="layer1">
    <circle
       style="fill:#ffffff;stroke:#000000;stroke-width:6.01544;stroke-linejoin:round;paint-order:stroke fill markers"
       id="path541"
       cx="67.231346"
       cy="64.830223"
       r="59.285973" />
    <ellipse
       style="fill:#000000;stroke:#000000;stroke-width:5.44385;stroke-linejoin:round;paint-order:stroke fill markers"
       id="path904"
       cx="58.183941"
       cy="118.58813"
       rx="13.733778"
       ry="30.646955"
       clip-path="url(#clipPath1080)" />
    <ellipse
       style="fill:#000000;stroke:#000000;stroke-width:5.44385;stroke-linejoin:round;paint-order:stroke fill markers"
       id="path904-3"
       cx="58.183941"
       cy="118.58813"
       rx="13.733778"
       ry="30.646955"
       clip-path="url(#clipPath1080-2)"
       transform="matrix(-1,0,0,1,135.50132,0.78363419)" />
    <circle
       style="fill:none;stroke:#000000;stroke-width:6.01544;stroke-linejoin:round;paint-order:stroke fill markers"
       id="path541-3"
       cx="67.260895"
       cy="65.301842"
       r="59.285973" />
    <circle
       style="fill:#000000;stroke:#000000;stroke-width:4.04799;stroke-linejoin:round;paint-order:stroke fill markers"
       id="path707"
       cx="68.04451"
       cy="63.603996"
       r="24.945301" />
    <path
       style="fill:#000000;stroke:#000000;stroke-width:4.04799;stroke-linejoin:round;paint-order:stroke fill markers"
       d="m 49.629398,118.58814 c 1.251736,1.0893 2.782184,0.17313 4.179316,0.52241 0.0505,0.0126 0.947634,0.21261 1.044829,0.26121 0.313449,0.15673 0.470175,0.6269 0.783624,0.78362 0.23363,0.11682 0.535819,-0.0826 0.783622,0 0.23363,0.0779 0.302144,0.41228 0.522415,0.52242 0.637561,0.31878 3.313501,0 4.179316,0 2.960351,0 5.9207,0 8.881051,0 0.183491,0 1.176512,0.12952 1.306036,0 0.348277,-0.34828 -0.435345,-0.26121 0.261208,-0.26121 1.438349,0 3.024645,0.20227 4.440526,0 0.955955,-0.13657 1.900123,-0.40077 2.873279,-0.52242 0.51838,-0.0648 1.099982,0.23364 1.567244,0 1.087083,-0.54354 -0.279239,0.0181 0.261207,-0.52241 0.221985,-0.22198 0.595265,-0.27127 0.783622,-0.52242 0.104484,-0.13931 -0.09659,-0.37752 0,-0.52241 0.107997,-0.16199 0.422248,-0.0943 0.522417,-0.26121 0.1847,-0.30783 0.11979,-0.71486 0.261207,-1.04483 0.24833,-0.57944 0.659022,-0.94425 0.783622,-1.56724 0.263991,-1.31995 0.195098,-3.48492 -0.261207,-4.70173 -0.136724,-0.3646 -0.385694,-0.68024 -0.522415,-1.04483 -0.252105,-0.67228 -0.201321,-1.44747 -0.522414,-2.08966 -0.44354,-0.88708 -1.134187,-1.58097 -1.306039,-2.61207 -0.182393,-1.09437 0.217543,-2.30799 0,-3.3957 -0.03818,-0.19091 -0.213987,-0.33354 -0.261208,-0.52242 -0.08447,-0.33787 0.08447,-0.70695 0,-1.04482 -0.189968,-0.759878 -0.330842,-1.584584 -0.522414,-2.35087 -0.09444,-0.377759 -0.44605,-0.663006 -0.522414,-1.044829 -0.133954,-0.669764 0.133953,-1.419897 0,-2.089661 -0.238837,-1.194181 -0.291148,0.18636 -0.783622,-1.044829 -0.194019,-0.48505 0.126703,-1.060426 0,-1.567243 -0.181716,-0.726863 -1.12585,-0.846492 -1.306036,-1.567244 -0.04224,-0.168939 0.04224,-0.353475 0,-0.522414 -0.164346,-0.657386 -2.920069,-4.018502 -3.13449,-4.179319 -1.232868,-0.92465 -3.644675,-1.439695 -5.224145,-1.044829 -0.468215,0.117055 -0.667732,0.371576 -1.044832,0.522415 -0.819449,0.327779 -1.569037,0.1315 -2.350865,0.522414 -0.525592,0.262798 -0.927862,0.916954 -1.567243,1.044829 -0.256136,0.05123 -0.530215,-0.06335 -0.783622,0 -0.376648,0.09416 -1.024779,1.095092 -1.306039,1.306037 -0.311507,0.233632 -0.76949,0.247078 -1.044829,0.522417 -0.711883,0.711882 -1.119865,1.903486 -1.828451,2.612072 -0.06157,0.06157 -0.199641,-0.06157 -0.261207,0 -0.101777,0.101777 0,0.885431 0,1.044829"
       id="path1423" />
  </g>
</svg>
