<?xml version="1.0" encoding="UTF-8" standalone="no"?>
<!-- Created with Inkscape (http://www.inkscape.org/) -->

<svg
   version="1.1"
   id="svg2"
   width="500"
   height="140"
   viewBox="0 0 500 140"
   sodipodi:docname="logotmavy.svg"
   inkscape:version="1.2.1 (9c6d41e410, 2022-07-14)"
   xmlns:inkscape="http://www.inkscape.org/namespaces/inkscape"
   xmlns:sodipodi="http://sodipodi.sourceforge.net/DTD/sodipodi-0.dtd"
   xmlns="http://www.w3.org/2000/svg"
   xmlns:svg="http://www.w3.org/2000/svg">
  <defs
     id="defs6" />
  <sodipodi:namedview
     id="namedview4"
     pagecolor="#ffffff"
     bordercolor="#111111"
     borderopacity="1"
     inkscape:showpageshadow="0"
     inkscape:pageopacity="0"
     inkscape:pagecheckerboard="1"
     inkscape:deskcolor="#d1d1d1"
     showgrid="false"
     showguides="true"
     inkscape:zoom="1.608"
     inkscape:cx="319.96269"
     inkscape:cy="106.65423"
     inkscape:window-width="1920"
     inkscape:window-height="991"
     inkscape:window-x="-9"
     inkscape:window-y="-9"
     inkscape:window-maximized="1"
     inkscape:current-layer="g8" />
  <g
     inkscape:groupmode="layer"
     inkscape:label="Image"
     id="g8">
    <path
       style="fill:#ffffff"
       d="m 0.01613347,133.64017 v -6.5 H 62.016134 124.01614 v 6.5 6.5 H 62.016134 0.01613347 Z M 148.01613,112.09786 V 84.097868 l 14.25,0.006 c 7.8375,0.003 15.92353,0.47036 17.96895,1.03843 10.9191,3.03253 15.03357,14.748686 8.08108,23.011262 l -2.62038,3.11415 2.56597,2.16529 c 3.65113,3.081 4.75438,5.79994 4.75438,11.71719 0,4.66186 -0.37957,5.56295 -3.77255,8.95593 -5.06885,5.06886 -9.09871,5.98001 -26.47745,5.98658 l -14.75,0.005 z m 29.11361,16.9392 c 2.84613,-1.52321 4.08859,-5.4013 2.70403,-8.44009 -1.34483,-2.95157 -5.97623,-4.48547 -13.56764,-4.49353 l -5.25,-0.006 v 7 7 h 7.06574 c 3.88616,0 7.9577,-0.47736 9.04787,-1.0608 z m -0.74847,-24.01178 c 3.16643,-2.49071 3.4257,-6.136572 0.63486,-8.927412 -1.61905,-1.61905 -3.33333,-2 -9,-2 h -7 v 6.499992 6.5 h 6.36514 c 4.92525,0 6.96119,-0.46885 9,-2.07258 z m 38.9572,31.82258 c 0.74205,-1.7875 5.7541,-14.3875 11.13789,-28 l 9.78871,-24.749992 h 6.21907 6.21907 l 3.06,7.75 c 1.683,4.26249 6.65762,16.862492 11.05474,27.999992 l 7.99476,20.25 h -6.79786 -6.79786 l -1.79797,-5 -1.79798,-5 h -11.20202 -11.20203 l -1.79797,5 -1.79798,5 h -6.81587 -6.81588 z m 34.67766,-17.14965 c 0,-0.51755 -7.12042,-19.01322 -7.45893,-19.37497 -0.20453,-0.21858 -3.37015,7.81828 -7.29662,18.52462 -0.3413,0.93063 1.48514,1.25 7.14856,1.25 4.18385,0 7.60699,-0.17984 7.60699,-0.39965 z m 42,15.58015 c 0,-4.58272 0.61413,-5.6666 12.5,-22.06153 6.875,-9.48312 12.5,-17.439342 12.5,-17.680492 0,-0.24116 -5.4,-0.43847 -12,-0.43847 h -12 v -5.5 -5.5 h 20.5 20.5 v 4.34643 c 0,3.97372 -1.0719,5.83055 -12.5,21.653562 -6.875,9.51893 -12.5,17.68803 -12.5,18.15357 0,0.46554 5.625,0.84643 12.5,0.84643 h 12.5 v 5.5 5.5 h -21 -21 z m 64.32234,1.5695 c 0.74205,-1.7875 5.7541,-14.3875 11.13789,-28 l 9.78871,-24.749992 h 6.21907 6.21907 l 3.06,7.75 c 1.683,4.26249 6.65762,16.862492 11.05474,27.999992 l 7.99476,20.25 h -6.79786 -6.79786 l -1.79797,-5 -1.79798,-5 h -11.20202 -11.20203 l -1.79797,5 -1.79798,5 h -6.81587 -6.81588 z m 34.67766,-17.14965 c 0,-0.51755 -7.12042,-19.01322 -7.45893,-19.37497 -0.20453,-0.21858 -3.37015,7.81828 -7.29662,18.52462 -0.3413,0.93063 1.48514,1.25 7.14856,1.25 4.18385,0 7.60699,-0.17984 7.60699,-0.39965 z m 45,-7.60035 V 84.097868 l 13.75,0.006 c 16.28026,0.007 20.46977,0.9789 25.38135,5.89048 8.23522,8.23522 7.15121,23.312652 -2.07968,28.926312 l -2.96661,1.80411 5.07874,8.43675 c 7.07393,11.75073 7.14773,10.93634 -0.99107,10.93634 h -7.04124 l -4.81575,-8.4934 -4.81574,-8.4934 -4.25,-0.007 -4.25,-0.006 v 8.5 8.5 h -6.5 -6.5 z m 27.31574,-1.16334 c 5.28254,-2.8135 6.35596,-9.25587 2.22971,-13.382102 -2.17232,-2.17233 -3.32211,-2.45455 -10,-2.45455 h -7.54545 v 7.833322 c 0,4.30834 0.3,8.13334 0.66667,8.5 1.12076,1.12076 12.3255,0.74087 14.64907,-0.49667 z M 25.780179,57.144468 c -7.401852,-2.22873 -13.764045,-9.54126 -13.764045,-15.82001 0,-1.99899 0.500688,-2.18428 5.902175,-2.18428 5.673724,0 5.943116,0.11745 6.959932,3.03429 2.66737,7.65162 18.137892,7.12562 18.137892,-0.6167 0,-3.24888 -3.935197,-5.90697 -11.592689,-7.83047 C 16.204139,29.904328 10.569463,23.557408 12.95081,12.919638 15.908286,-0.29176263 37.590813,-4.5629526 49.067093,5.8051774 c 3.290194,2.9725 5.917502,8.0936406 5.943463,11.5850006 0.0031,0.4125 -2.708546,0.75 -6.025808,0.75 -4.841084,0 -6.153864,-0.34536 -6.651999,-1.75 -1.906717,-5.37653 -7.322739,-8.3373806 -13.415817,-5.79153 -3.355456,1.402 -3.999667,2.82011 -3.715932,5.76772 0.373896,3.88427 3.249643,5.61005 14.792981,8.87752 12.393754,3.50819 18.021981,11.27809 15.139185,20.90001 -1.378478,4.60094 -6.688374,9.50562 -11.839699,10.93615 -4.390932,1.21937 -13.565481,1.25312 -17.513288,0.0644 z m 72.078592,0.0809 c -7.74529,-2.51438 -12.96857,-8.20394 -14.76693,-16.08519 -0.56475,-2.475 -1.03782,-12.4875 -1.05126,-22.25 l -0.0245,-17.7500007 h 6.5 6.5 V 19.689838 c 0,20.26664 0.74312,23.64178 5.613009,25.4933 3.29155,1.25145 8.02992,1.21851 10.44238,-0.0726 4.25856,-2.27911 4.94461,-5.80617 4.94461,-25.4207 V 1.1401773 h 6.5724 6.57241 l -0.32241,20.7500007 c -0.32038,20.62007 -0.33979,20.77958 -3.09898,25.47342 -3.88259,6.60494 -9.86047,9.95331 -18.54825,10.38938 -3.67134,0.18427 -7.870976,-0.0531 -9.332529,-0.52762 z M 159.01613,29.140178 V 1.1401773 h 12.3185 c 14.68704,0 20.85214,1.5105001 25.39744,6.2226001 4.00376,4.1506806 5.42573,7.9312806 5.42639,14.4272306 0.001,12.65167 -8.23469,19.35017 -23.79155,19.35017 h -7.35078 v 8 8 h -6 -6 z m 27.7223,-0.95591 c 4.49761,-4.19016 3.57759,-12.06935 -1.7223,-14.75008 -1.375,-0.69549 -5.0875,-1.27116 -8.25,-1.27927 l -5.75,-0.0147 v 9 9 h 6.81144 c 5.37801,0 7.25325,-0.41161 8.91086,-1.95591 z m 41.2777,0.95591 V 1.1401773 h 18.5 18.5 v 5.5000001 5.5000006 h -12 -12 v 5.5 5.5 h 11 11 v 5.5 5.5 h -11 -11 v 6 6 h 12.5 12.5 v 5.5 5.5 h -19 -19 z m 65,-0.0879 V 0.96441734 l 15.75,0.33785996 c 14.5718,0.3125901 16.07162,0.5220301 20.04941,2.7997701 5.34041,3.05801 8.1007,7.3990606 8.87802,13.9622806 0.78431,6.6223 -1.64584,13.07988 -6.39571,16.99512 l -3.55802,2.93283 5.60516,9.57393 5.60516,9.57393 h -7.24648 -7.24648 l -4.91184,-8.5 -4.91184,-8.5 h -4.30869 -4.30869 v 8.5 8.5 h -6.5 -6.5 z m 27.92848,-1.37515 c 4.85697,-2.51164 5.66338,-9.03604 1.61697,-13.08244 -2.14154,-2.14151 -3.35297,-2.45451 -9.5,-2.45451 h -7.04545 v 8.5 8.5 h 6.04966 c 3.35365,0 7.31047,-0.65199 8.87882,-1.46301 z M 375.89258,7.3875074 V 0.88750738 h 62.00001 62 V 7.3875074 13.887508 h -62 -62.00001 z"
       id="path847"
       sodipodi:nodetypes="ccccccccccccsscsssccccsccccsccssscccsssscccsscccccccccccsssssssssscccccsssscccccssscccsscccccccccccssssssccsssccsccccccccccssscssssssssssssssssssssscsccccsssscccsssccccsscsccccccssscccssscccccccccccccccccccccccccccssssccccccccccccccssscccsssccccccccc" />
  </g>
</svg>
